<svg width="161" height="29" viewBox="0 0 161 29" fill="none" xmlns="http://www.w3.org/2000/svg">
<path d="M0.513672 1.35156H19.6035V8.89258H16V4.39258H6.49023V12.9531H15.6484V15.9062H6.49023V24.9766H9.16211V28H0.513672V24.9766H3.04492V4.39258H0.513672V1.35156ZM21.4844 9.78906H27.4258V24.9766H30.168V28H21.5195V24.9766H24.1211V12.8125H21.4844V9.78906ZM23.5059 3.33789C23.5059 3.0332 23.5645 2.74609 23.6816 2.47656C23.8105 2.19531 23.9746 1.95508 24.1738 1.75586C24.3848 1.54492 24.6309 1.38086 24.9121 1.26367C25.1934 1.13477 25.4922 1.07031 25.8086 1.07031C26.1133 1.07031 26.4004 1.13477 26.6699 1.26367C26.9512 1.38086 27.1914 1.54492 27.3906 1.75586C27.6016 1.95508 27.7656 2.19531 27.8828 2.47656C28.0117 2.74609 28.0762 3.0332 28.0762 3.33789C28.0762 3.6543 28.0117 3.95312 27.8828 4.23438C27.7656 4.51562 27.6016 4.76758 27.3906 4.99023C27.1914 5.20117 26.9512 5.37109 26.6699 5.5C26.4004 5.61719 26.1133 5.67578 25.8086 5.67578C25.4922 5.67578 25.1934 5.61719 24.9121 5.5C24.6309 5.37109 24.3848 5.20117 24.1738 4.99023C23.9746 4.76758 23.8105 4.51562 23.6816 4.23438C23.5645 3.95312 23.5059 3.6543 23.5059 3.33789ZM33.0508 0.648438H38.957V24.9766H41.6992V28H33.0508V24.9766H35.6875V3.67188H33.0508V0.648438ZM44.8984 9.78906H50.6992V11.916H50.7344C51.1328 11.5762 51.5488 11.2598 51.9824 10.9668C52.4277 10.6621 52.8906 10.3984 53.3711 10.1758C53.8516 9.95312 54.3496 9.77734 54.8652 9.64844C55.3926 9.51953 55.9375 9.45508 56.5 9.45508C57.8125 9.45508 58.9434 9.70117 59.8926 10.1934C60.8418 10.6738 61.5742 11.4297 62.0898 12.4609C62.5352 12.0625 63.0039 11.6816 63.4961 11.3184C63.9883 10.9434 64.498 10.6211 65.0254 10.3516C65.5645 10.082 66.127 9.86523 66.7129 9.70117C67.2988 9.53711 67.9082 9.45508 68.541 9.45508C69.5254 9.45508 70.4102 9.58984 71.1953 9.85938C71.9805 10.1289 72.6484 10.5391 73.1992 11.0898C73.75 11.6406 74.166 12.3496 74.4473 13.2168C74.7402 14.0723 74.8867 15.0859 74.8867 16.2578V24.9766H77.418V28H68.9102V24.9766H71.4766V16.6621C71.4766 15.2676 71.125 14.2129 70.4219 13.498C69.7188 12.7715 68.7051 12.4082 67.3809 12.4082C66.5957 12.4082 65.793 12.5957 64.9727 12.9707C64.1523 13.3457 63.4492 13.8203 62.8633 14.3945V24.9766H65.377V28H56.8867V24.9766H59.4531V16.6621C59.4531 15.2676 59.0957 14.2129 58.3809 13.498C57.6777 12.7715 56.6641 12.4082 55.3398 12.4082C54.5781 12.4082 53.8105 12.5898 53.0371 12.9531C52.2637 13.3164 51.5312 13.7676 50.8398 14.3066V24.9766H53.4062V28H44.8984V24.9766H47.4297V12.8125H44.8984V9.78906ZM91.4453 14.6758C91.4453 14.1836 91.3281 13.7676 91.0938 13.4277C90.8711 13.0762 90.5781 12.7949 90.2148 12.584C89.8516 12.3613 89.4473 12.2031 89.002 12.1094C88.5566 12.0039 88.123 11.9512 87.7012 11.9512C87.2324 11.9512 86.7988 12.0039 86.4004 12.1094C86.0137 12.2148 85.6797 12.3672 85.3984 12.5664C85.1172 12.7656 84.8945 13.0117 84.7305 13.3047C84.5781 13.5859 84.502 13.9023 84.502 14.2539C84.502 14.8633 84.6836 15.3496 85.0469 15.7129C85.4219 16.0645 86.043 16.3926 86.9102 16.6973L90.4082 17.9277C91.9082 18.4316 93.0039 19.1172 93.6953 19.9844C94.3867 20.8516 94.7324 21.8887 94.7324 23.0957C94.7324 23.9043 94.5684 24.6484 94.2402 25.3281C93.9238 25.9961 93.4668 26.5703 92.8691 27.0508C92.2832 27.5195 91.5742 27.8828 90.7422 28.1406C89.9102 28.4102 88.9844 28.5449 87.9648 28.5449C86.5469 28.5449 85.3926 28.3164 84.502 27.8594C83.6113 27.4023 82.9258 26.7988 82.4453 26.0488H80.6172V23.0254H84.2559C84.2559 23.5293 84.3613 23.9629 84.5723 24.3262C84.7949 24.6777 85.082 24.9648 85.4336 25.1875C85.7969 25.4102 86.2012 25.5742 86.6465 25.6797C87.1035 25.7852 87.5664 25.8379 88.0352 25.8379C88.4922 25.8379 88.9316 25.7852 89.3535 25.6797C89.7754 25.5625 90.1445 25.3984 90.4609 25.1875C90.7891 24.9648 91.0469 24.7012 91.2344 24.3965C91.4219 24.0918 91.5156 23.7461 91.5156 23.3594C91.5156 22.7734 91.3223 22.2754 90.9355 21.8652C90.5605 21.4551 89.916 21.0859 89.002 20.7578L85.5215 19.457C84.1035 18.9531 83.0488 18.3145 82.3574 17.541C81.6777 16.7559 81.3379 15.7773 81.3379 14.6055C81.3379 13.832 81.4785 13.1172 81.7598 12.4609C82.0527 11.8047 82.4688 11.2422 83.0078 10.7734C83.5586 10.293 84.2266 9.91797 85.0117 9.64844C85.7969 9.37891 86.6934 9.24414 87.7012 9.24414C89.002 9.24414 90.0918 9.42578 90.9707 9.78906C91.8496 10.1523 92.6406 10.7734 93.3438 11.6523H95.0488V14.6758H91.4453Z" fill="white"/>
<path d="M98.6348 1.35156H119.834V10.4395H114.104V6.66016H107.266V11.916H112.557V17.0137H107.266V23.1836H114.104V18.4551H119.834V28H98.6348V23.1836H101.43V6.66016H98.6348V1.35156ZM138.836 16.416H133.896V14.5352C133.416 14.5352 132.977 14.5703 132.578 14.6406C132.18 14.6992 131.828 14.8047 131.523 14.957C131.23 15.1094 130.979 15.3203 130.768 15.5898C130.568 15.8594 130.428 16.1934 130.346 16.5918V23.1836H134.055V28H122.172V23.1836H124.896V14.6055H122.207V9.78906H130.311V11.0723C130.826 10.6621 131.406 10.3457 132.051 10.123C132.695 9.90039 133.398 9.78906 134.16 9.78906C134.934 9.78906 135.73 9.79492 136.551 9.80664C137.371 9.81836 138.133 9.82422 138.836 9.82422V16.416ZM153.021 27.0156C152.611 27.2734 152.236 27.4961 151.896 27.6836C151.557 27.8594 151.217 28 150.877 28.1055C150.537 28.2227 150.186 28.3047 149.822 28.3516C149.459 28.4102 149.061 28.4395 148.627 28.4395C147.537 28.4395 146.559 28.293 145.691 28C144.836 27.6953 144.109 27.2852 143.512 26.7695C142.926 26.2422 142.475 25.627 142.158 24.9238C141.842 24.209 141.684 23.4355 141.684 22.6035C141.684 21.7598 141.842 20.9805 142.158 20.2656C142.486 19.5508 142.955 18.9414 143.564 18.4375C144.174 17.9219 144.918 17.5234 145.797 17.2422C146.688 16.9492 147.701 16.8027 148.838 16.8027C149.67 16.8027 150.426 16.8496 151.105 16.9434C151.797 17.0254 152.436 17.1309 153.021 17.2598V16.6973C153.021 16.2402 152.934 15.8477 152.758 15.5195C152.582 15.1797 152.336 14.9043 152.02 14.6934C151.703 14.4707 151.322 14.3125 150.877 14.2188C150.432 14.1133 149.945 14.0605 149.418 14.0605C148.316 14.0605 147.344 14.1719 146.5 14.3945C145.668 14.6055 144.865 14.916 144.092 15.3262L142.404 11.916C143.6 11.0957 144.848 10.4688 146.148 10.0352C147.461 9.60156 148.85 9.38477 150.314 9.38477C151.451 9.38477 152.5 9.51367 153.461 9.77148C154.434 10.0176 155.266 10.4277 155.957 11.002C156.648 11.5645 157.188 12.3027 157.574 13.2168C157.973 14.1309 158.172 15.2441 158.172 16.5566V23.1836H160.615V28H153.021V27.0156ZM149.014 24.291C149.846 24.291 150.602 24.1562 151.281 23.8867C151.961 23.6172 152.541 23.2891 153.021 22.9023V20.582H148.803C148.533 20.582 148.27 20.623 148.012 20.7051C147.754 20.7871 147.52 20.9043 147.309 21.0566C147.109 21.209 146.945 21.3965 146.816 21.6191C146.699 21.8418 146.641 22.0996 146.641 22.3926C146.641 22.9316 146.834 23.3828 147.221 23.7461C147.619 24.1094 148.217 24.291 149.014 24.291Z" fill="#F8C163"/>
</svg>

