<svg width="1980" height="352" viewBox="0 0 1980 352" fill="none" xmlns="http://www.w3.org/2000/svg">
<path d="M0 1L1980 1V352L175.5 352C78.574 352 0 273.426 0 176.5L0 1Z" fill="#51456C"/>
<path fill-rule="evenodd" clip-rule="evenodd" d="M1643.76 0H1980V245.719C1944 271.695 1899.79 287 1852 287C1731.05 287 1633 188.95 1633 68C1633 44.2618 1636.78 21.4058 1643.76 0Z" fill="#F8C163" fill-opacity="0.3"/>
<path fill-rule="evenodd" clip-rule="evenodd" d="M1707.72 0L1980 0V191.781C1950.85 212.055 1915.04 224 1876.35 224C1778.4 224 1699 147.473 1699 53.0732C1699 34.5458 1702.06 16.707 1707.72 0Z" fill="#F8C163" fill-opacity="0.3"/>
<path fill-rule="evenodd" clip-rule="evenodd" d="M1777.48 0L1980 0V144.692C1958.32 159.988 1931.69 169 1902.9 169C1830.06 169 1771 111.263 1771 40.0418C1771 26.0636 1773.27 12.6048 1777.48 0Z" fill="#F8C163" fill-opacity="0.3"/>
</svg>
